HIERARCHY
ROOT Root
{
  OFFSET 0.0 0.0 0.0
  CHANNELS 6 Xposition Yposition Zposition Zrotation Yrotation Xrotation
  JOINT Hips
  {
    OFFSET 0.0 100.0 0.0
    CHANNELS 6 Xposition Yposition Zposition Zrotation Yrotation Xrotation
    JOINT Spine1
    {
      OFFSET -0.013727 5.003763 -0.053727
      CHANNELS 3 Zrotation Yrotation Xrotation
      JOINT Spine2
      {
        OFFSET -0.0 7.125301 -0.029825
        CHANNELS 3 Zrotation Yrotation Xrotation
        JOINT Chest
        {
          OFFSET -1e-06 7.550063 -0.815971
          CHANNELS 3 Zrotation Yrotation Xrotation
          JOINT Neck1
          {
            OFFSET -0.181677 26.311295 -0.553348
            CHANNELS 3 Zrotation Yrotation Xrotation
            JOINT Neck2
            {
              OFFSET -3e-06 7.709397 2.302585
              CHANNELS 3 Zrotation Yrotation Xrotation
              JOINT Head
              {
                OFFSET -5e-06 6.128916 1.953709
                CHANNELS 3 Zrotation Yrotation Xrotation
                JOINT HeadEnd
                {
                  OFFSET 0.003598 16.065403 -1.835379
                  CHANNELS 3 Zrotation Yrotation Xrotation
                }
                JOINT Jaw
                {
                  OFFSET 0.002637 0.475592 3.094941
                  CHANNELS 3 Zrotation Yrotation Xrotation
                }
                JOINT LeftEye
                {
                  OFFSET 3.206381 5.380205 7.586883
                  CHANNELS 3 Zrotation Yrotation Xrotation
                }
                JOINT RightEye
                {
                  OFFSET -3.22244 5.361869 7.558234
                  CHANNELS 3 Zrotation Yrotation Xrotation
                }
              }
            }
          }
          JOINT LeftShoulder
          {
            OFFSET 1.621652 23.237164 5.113413
            CHANNELS 3 Zrotation Yrotation Xrotation
            JOINT LeftArm
            {
              OFFSET 14.919846 2e-06 -5.502326
              CHANNELS 3 Zrotation Yrotation Xrotation
              JOINT LeftForeArm
              {
                OFFSET 28.739307 0.0 -0.002588
                CHANNELS 3 Zrotation Yrotation Xrotation
                JOINT LeftHand
                {
                  OFFSET 27.093981 -1e-06 0.002609
                  CHANNELS 3 Zrotation Yrotation Xrotation
                  JOINT LeftHandThumb1
                  {
                    OFFSET 2.276482 -1.392045 3.191413
                    CHANNELS 3 Zrotation Yrotation Xrotation
                    JOINT LeftHandThumb2
                    {
                      OFFSET 4.012836 -1.828127 1.641654
                      CHANNELS 3 Zrotation Yrotation Xrotation
                      JOINT LeftHandThumb3
                      {
                        OFFSET 2.798515 0.0 -3e-06
                        CHANNELS 3 Zrotation Yrotation Xrotation
                        JOINT LeftHandThumbEnd
                        {
                          OFFSET 3.180793 -4e-06 4e-06
                          CHANNELS 3 Zrotation Yrotation Xrotation
                        }
                      }
                    }
                  }
                  JOINT LeftHandIndex1
                  {
                    OFFSET 3.247555 -0.531998 2.296169
                    CHANNELS 3 Zrotation Yrotation Xrotation
                    JOINT LeftHandIndex2
                    {
                      OFFSET 6.364578 0.01206 0.1786
                      CHANNELS 3 Zrotation Yrotation Xrotation
                      JOINT LeftHandIndex3
                      {
                        OFFSET 3.662364 0.0 0.0
                        CHANNELS 3 Zrotation Yrotation Xrotation
                        JOINT LeftHandIndex4
                        {
                          OFFSET 2.329242 4e-06 4e-06
                          CHANNELS 3 Zrotation Yrotation Xrotation
                          JOINT LeftHandIndexEnd
                          {
                            OFFSET 2.759615 -0.180537 -0.113024
                            CHANNELS 3 Zrotation Yrotation Xrotation
                          }
                        }
                      }
                    }
                  }
                  JOINT LeftHandMiddle1
                  {
                    OFFSET 3.163495 0.240981 1.000332
                    CHANNELS 3 Zrotation Yrotation Xrotation
                    JOINT LeftHandMiddle2
                    {
                      OFFSET 6.19078 -0.259278 -1.002548
                      CHANNELS 3 Zrotation Yrotation Xrotation
                      JOINT LeftHandMiddle3
                      {
                        OFFSET 4.35652 -4e-06 -1e-06
                        CHANNELS 3 Zrotation Yrotation Xrotation
                        JOINT LeftHandMiddle4
                        {
                          OFFSET 2.996877 -8e-06 0.0
                          CHANNELS 3 Zrotation Yrotation Xrotation
                          JOINT LeftHandMiddleEnd
                          {
                            OFFSET 2.304287 -0.294569 -0.031741
                            CHANNELS 3 Zrotation Yrotation Xrotation
                          }
                        }
                      }
                    }
                  }
                  JOINT LeftHandRing1
                  {
                    OFFSET 2.882643 -0.053652 -0.322543
                    CHANNELS 3 Zrotation Yrotation Xrotation
                    JOINT LeftHandRing2
                    {
                      OFFSET 5.854541 -0.486202 -1.373841
                      CHANNELS 3 Zrotation Yrotation Xrotation
                      JOINT LeftHandRing3
                      {
                        OFFSET 4.350578 0.0 3e-06
                        CHANNELS 3 Zrotation Yrotation Xrotation
                        JOINT LeftHandRing4
                        {
                          OFFSET 2.651321 7e-06 2e-06
                          CHANNELS 3 Zrotation Yrotation Xrotation
                          JOINT LeftHandRingEnd
                          {
                            OFFSET 1.936105 0.077687 -7.1e-05
                            CHANNELS 3 Zrotation Yrotation Xrotation
                          }
                        }
                      }
                    }
                  }
                  JOINT LeftHandPinky1
                  {
                    OFFSET 2.8655 -0.310005 -1.600378
                    CHANNELS 3 Zrotation Yrotation Xrotation
                    JOINT LeftHandPinky2
                    {
                      OFFSET 5.087849 -1.331141 -1.77123
                      CHANNELS 3 Zrotation Yrotation Xrotation
                      JOINT LeftHandPinky3
                      {
                        OFFSET 3.070974 4e-06 0.0
                        CHANNELS 3 Zrotation Yrotation Xrotation
                        JOINT LeftHandPinky4
                        {
                          OFFSET 1.549672 0.0 1e-06
                          CHANNELS 3 Zrotation Yrotation Xrotation
                          JOINT LeftHandPinkyEnd
                          {
                            OFFSET 1.944893 -0.157802 0.057219
                            CHANNELS 3 Zrotation Yrotation Xrotation
                          }
                        }
                      }
                    }
                  }
                }
              }
            }
          }
          JOINT RightShoulder
          {
            OFFSET -1.380118 23.180309 5.214158
            CHANNELS 3 Zrotation Yrotation Xrotation
            JOINT RightArm
            {
              OFFSET -15.037196 1.2e-05 -5.545604
              CHANNELS 3 Zrotation Yrotation Xrotation
              JOINT RightForeArm
              {
                OFFSET -28.736639 2e-06 -0.002597
                CHANNELS 3 Zrotation Yrotation Xrotation
                JOINT RightHand
                {
                  OFFSET -27.133619 -0.0 0.002613
                  CHANNELS 3 Zrotation Yrotation Xrotation
                  JOINT RightHandThumb1
                  {
                    OFFSET -2.274032 -1.383988 3.163127
                    CHANNELS 3 Zrotation Yrotation Xrotation
                    JOINT RightHandThumb2
                    {
                      OFFSET -4.011429 -1.827466 1.640914
                      CHANNELS 3 Zrotation Yrotation Xrotation
                      JOINT RightHandThumb3
                      {
                        OFFSET -2.794935 -4e-06 -3e-06
                        CHANNELS 3 Zrotation Yrotation Xrotation
                        JOINT RightHandThumbEnd
                        {
                          OFFSET -3.183852 4e-06 1e-06
                          CHANNELS 3 Zrotation Yrotation Xrotation
                        }
                      }
                    }
                  }
                  JOINT RightHandIndex1
                  {
                    OFFSET -3.253266 -0.520057 2.282866
                    CHANNELS 3 Zrotation Yrotation Xrotation
                    JOINT RightHandIndex2
                    {
                      OFFSET -6.341917 0.012471 0.178266
                      CHANNELS 3 Zrotation Yrotation Xrotation
                      JOINT RightHandIndex3
                      {
                        OFFSET -3.654871 -8e-06 -0.0
                        CHANNELS 3 Zrotation Yrotation Xrotation
                        JOINT RightHandIndex4
                        {
                          OFFSET -2.327586 0.0 1e-06
                          CHANNELS 3 Zrotation Yrotation Xrotation
                          JOINT RightHandIndexEnd
                          {
                            OFFSET -2.76179 -0.180656 -0.113078
                            CHANNELS 3 Zrotation Yrotation Xrotation
                          }
                        }
                      }
                    }
                  }
                  JOINT RightHandMiddle1
                  {
                    OFFSET -3.168106 0.246593 1.00103
                    CHANNELS 3 Zrotation Yrotation Xrotation
                    JOINT RightHandMiddle2
                    {
                      OFFSET -6.180828 -0.258836 -1.000895
                      CHANNELS 3 Zrotation Yrotation Xrotation
                      JOINT RightHandMiddle3
                      {
                        OFFSET -4.348901 0.0 -0.0
                        CHANNELS 3 Zrotation Yrotation Xrotation
                        JOINT RightHandMiddle4
                        {
                          OFFSET -3.00024 -4e-06 -2e-06
                          CHANNELS 3 Zrotation Yrotation Xrotation
                          JOINT RightHandMiddleEnd
                          {
                            OFFSET -2.30252 -0.29437 -0.031706
                            CHANNELS 3 Zrotation Yrotation Xrotation
                          }
                        }
                      }
                    }
                  }
                  JOINT RightHandRing1
                  {
                    OFFSET -2.88569 -0.067952 -0.308858
                    CHANNELS 3 Zrotation Yrotation Xrotation
                    JOINT RightHandRing2
                    {
                      OFFSET -5.854198 -0.48613 -1.373731
                      CHANNELS 3 Zrotation Yrotation Xrotation
                      JOINT RightHandRing3
                      {
                        OFFSET -4.33881 -4e-06 -0.0
                        CHANNELS 3 Zrotation Yrotation Xrotation
                        JOINT RightHandRing4
                        {
                          OFFSET -2.654903 -4e-06 4e-06
                          CHANNELS 3 Zrotation Yrotation Xrotation
                          JOINT RightHandRingEnd
                          {
                            OFFSET -1.933568 0.077527 -5.2e-05
                            CHANNELS 3 Zrotation Yrotation Xrotation
                          }
                        }
                      }
                    }
                  }
                  JOINT RightHandPinky1
                  {
                    OFFSET -2.866425 -0.342796 -1.584145
                    CHANNELS 3 Zrotation Yrotation Xrotation
                    JOINT RightHandPinky2
                    {
                      OFFSET -5.091371 -1.332055 -1.772385
                      CHANNELS 3 Zrotation Yrotation Xrotation
                      JOINT RightHandPinky3
                      {
                        OFFSET -3.062664 -4e-06 1e-06
                        CHANNELS 3 Zrotation Yrotation Xrotation
                        JOINT RightHandPinky4
                        {
                          OFFSET -1.546529 4e-06 -2e-06
                          CHANNELS 3 Zrotation Yrotation Xrotation
                          JOINT RightHandPinkyEnd
                          {
                            OFFSET -1.945119 -0.157718 0.057211
                            CHANNELS 3 Zrotation Yrotation Xrotation
                          }
                        }
                      }
                    }
                  }
                }
              }
            }
          }
        }
      }
    }
    JOINT LeftLeg
    {
      OFFSET 10.043214 -8.434526 2.595655
      CHANNELS 3 Zrotation Yrotation Xrotation
      JOINT LeftShin
      {
        OFFSET -1e-06 -43.221752 -0.802913
        CHANNELS 3 Zrotation Yrotation Xrotation
        JOINT LeftFoot
        {
          OFFSET 1e-06 -42.155094 -3.481523
          CHANNELS 3 Zrotation Yrotation Xrotation
          JOINT LeftToeBase
          {
            OFFSET 0.0 -5.059472 13.231529
            CHANNELS 3 Zrotation Yrotation Xrotation
            JOINT LeftToeEnd
            {
              OFFSET -0.009607 -1.647619 6.513017
              CHANNELS 3 Zrotation Yrotation Xrotation
            }
          }
        }
      }
    }
    JOINT RightLeg
    {
      OFFSET -10.047278 -8.29526 2.620317
      CHANNELS 3 Zrotation Yrotation Xrotation
      JOINT RightShin
      {
        OFFSET 1e-06 -43.362206 -0.805556
        CHANNELS 3 Zrotation Yrotation Xrotation
        JOINT RightFoot
        {
          OFFSET 2e-06 -42.117393 -3.478398
          CHANNELS 3 Zrotation Yrotation Xrotation
          JOINT RightToeBase
          {
            OFFSET -0.0 -5.079609 13.284196
            CHANNELS 3 Zrotation Yrotation Xrotation
            JOINT RightToeEnd
            {
              OFFSET 0.009532 -1.634378 6.460591
              CHANNELS 3 Zrotation Yrotation Xrotation
            }
          }
        }
      }
    }
  }
}
MOTION
Frames: 4
Frame Time: 0.03333333333333333
0.0 0.0 0.0 0.0 -0.0 0.0 0.051182 99.946442 0.763676 -2.259651 -0.043252 -1.353283 0.71234 0.20105 -2.926915 -0.381312 -0.272715 -6.123918 -0.308606 -2.263327 12.240491 -2.82846 5.009402 17.242262 -0.063433 2.688962 -3.516204 -2.881335 3.786296 -0.047832 7.7e-05 -2.3e-05 6e-06 0.086704 -0.216311 -5.8e-05 0.86278 -3.931977 -10.468942 -0.693469 3.514794 -10.487467 -15.85616 -5.868678 13.931643 -40.855747 -42.154938 6.896841 -179.352264 -56.08316 179.392883 64.447845 -13.145778 -35.249374 -5.882108 9.861293 0.702592 -10.936878 -0.360576 7.156208 2e-06 8.774833 -1e-06 -13.916007 17.59693 7.208578 -1.844034 2.498505 -2.507279 -10.163605 4.678948 4.62111 -20.976038 -6e-06 2e-06 -21.226301 2.451698 -3.594 0.0 -5e-06 1e-06 -1.36268 2.240799 -0.746324 -21.334929 0.584907 3.008324 -13.821223 -5e-06 0.0 -23.887184 -0.249083 -0.839483 -59.537113 2.441039 -1.062568 -0.294025 1.679688 0.833258 -14.218218 0.093213 1.300582 -34.212074 -0.287569 0.96717 -20.033228 0.964535 1.212845 1e-06 1e-06 0.0 -3.440389 0.788234 0.501657 -15.928194 -3.167314 2.999706 -6.338829 -2e-06 1e-06 -18.123457 3.648184 -4.905674 -4e-06 0.0 -2e-06 22.961443 5.304408 19.67111 49.275684 11.033248 40.48724 0.211211 31.226467 0.124903 -11.043457 -8.318624 -28.954487 2.243541 -5.255036 -3.180157 14.282887 -0.826594 6.9525 -2e-06 -12.690603 0.0 16.0707 -17.328987 2.532672 1.665666 -1.955921 -2.878297 4.727798 -4.170588 4.993921 11.020526 2e-06 -2e-06 12.109052 -3.735717 -2.866785 -1e-06 -0.0 -0.0 1.291986 -1.92855 -1.498087 14.800125 0.567467 3.865604 14.242569 -1.341738 -6.660656 19.631962 0.143925 -0.648244 48.783897 -0.711776 -6.354012 0.353029 -1.511151 -0.031941 20.222788 3.684308 2.316629 18.78727 3e-06 -2e-06 10.751629 -0.479868 1.397904 -1e-06 -0.0 -1e-06 3.273807 0.305947 -0.580109 21.486809 11.830374 2.266132 8.162924 1e-06 -2e-06 18.399078 -3.798984 -4.940577 3e-06 -0.0 -1e-06 10.488092 17.269634 1.697849 0.037524 -0.099462 7.220699 -8.483341 3.183108 -5.440177 1.632351 -2.030257 0.164347 0.0 -0.0 2e-06 -3.344067 -28.544533 3.180932 0.014931 -0.075263 3.274022 5.999862 -6.847058 -2.877013 -1.450395 0.793229 0.857468 -0.0 1e-06 -1e-06 
0.0 0.0 0.0 0.0 -0.0 0.0 0.060319 99.965416 0.763659 -2.290805 -0.08356 -1.490636 0.670715 0.169196 -2.862411 -0.392023 -0.18274 -6.116065 -0.308962 -2.269563 12.234643 -2.925609 5.040696 17.476198 0.023407 2.713856 -3.51368 -2.896663 3.81279 0.071271 7.7e-05 -2.2e-05 6e-06 0.072378 -0.178731 0.00945 0.841911 -3.897713 -10.475889 -0.701417 3.555489 -10.486259 -15.620156 -5.810444 13.987382 -40.934853 -42.368919 6.070855 -179.168182 -56.448021 179.03952 63.564693 -12.054681 -35.793259 -5.882109 9.861287 0.70259 -10.936876 -0.360577 7.156206 1e-06 8.77483 -1e-06 -13.932278 17.631645 7.359424 -1.844035 2.498505 -2.507277 -10.163603 4.678945 4.621109 -20.976034 -6e-06 2e-06 -21.226295 2.451696 -3.594 -1e-06 -6e-06 0.0 -1.362682 2.240799 -0.746322 -21.334921 0.584908 3.008324 -13.821218 -4e-06 1e-06 -23.887178 -0.249082 -0.839483 -59.705818 2.461274 -1.075692 -0.294024 1.679688 0.833254 -14.218212 0.093213 1.300579 -34.212063 -0.287568 0.967171 -20.033218 0.964535 1.212845 1e-06 0.0 -0.0 -3.440389 0.788233 0.501655 -15.928192 -3.167313 2.999707 -6.338829 -2e-06 0.0 -18.123451 3.648181 -4.905672 -5e-06 0.0 -2e-06 22.860151 5.241659 19.865786 49.096859 10.814898 39.684299 0.276002 32.458691 0.132782 -11.376002 -8.305333 -28.238865 2.243543 -5.255037 -3.180157 14.28289 -0.826595 6.952499 -1e-06 -12.690605 -2e-06 16.079899 -17.365704 2.554008 1.665666 -1.955922 -2.878298 4.727798 -4.170588 4.993922 11.020526 2e-06 -3e-06 12.109053 -3.735716 -2.866785 -1e-06 -0.0 1e-06 1.291986 -1.92855 -1.498089 14.800129 0.567468 3.865605 14.242574 -1.341737 -6.660658 19.631968 0.143926 -0.648247 49.02721 -0.745506 -6.264729 0.353029 -1.51115 -0.03194 20.22279 3.684308 2.316629 18.787273 4e-06 -4e-06 10.751627 -0.479869 1.397904 -1e-06 -1e-06 -1e-06 3.273806 0.305946 -0.580112 21.486813 11.830374 2.266132 8.162927 1e-06 -2e-06 18.399086 -3.798985 -4.940578 3e-06 -0.0 -1e-06 10.562965 17.151924 2.080445 0.018563 -0.123818 6.796427 -8.553062 3.339897 -5.295403 1.637107 -2.06204 0.271973 0.0 -0.0 2e-06 -3.392852 -28.475828 3.5813 0.003994 -0.091888 2.862136 5.940271 -6.895427 -2.620497 -1.45566 0.781718 0.900531 -0.0 1e-06 -1e-06 
0.0 0.0 0.0 0.0 -0.0 0.0 0.086878 99.975082 0.73792 -2.305394 -0.160313 -1.604424 0.632735 0.129443 -2.815082 -0.401611 -0.122322 -6.119965 -0.333788 -2.236914 12.279067 -3.016434 5.079465 17.733551 0.068101 2.760639 -3.528875 -2.862362 3.836877 0.289327 7.7e-05 -2.3e-05 5e-06 0.06637 -0.155547 0.012652 0.831467 -3.873731 -10.492052 -0.703226 3.577488 -10.4941 -15.478826 -5.72683 14.040133 -41.132103 -42.35297 5.506495 -179.293274 -56.834385 179.049484 62.247223 -10.872883 -36.448318 -5.882103 9.861288 0.702593 -10.936873 -0.360577 7.156209 2e-06 8.774828 1e-06 -13.935154 17.563393 7.396381 -1.844033 2.498504 -2.507278 -10.163598 4.678944 4.621111 -20.976023 -7e-06 3e-06 -21.226286 2.451695 -3.593997 0.0 -6e-06 -1e-06 -1.362682 2.240798 -0.746324 -21.334917 0.584906 3.008324 -13.821215 -5e-06 4e-06 -23.887169 -0.249081 -0.839478 -59.706551 2.427947 -1.039192 -0.294025 1.679688 0.833257 -14.218207 0.093211 1.300581 -34.212048 -0.287569 0.967178 -20.033211 0.964536 1.212847 1e-06 0.0 1e-06 -3.440389 0.788232 0.501658 -15.928189 -3.167313 2.999708 -6.338826 -2e-06 2e-06 -18.123444 3.648183 -4.905669 -5e-06 -0.0 -2e-06 22.717321 5.217932 19.9576 48.8209 10.48667 38.830391 0.288125 34.283127 0.112442 -11.911484 -8.439625 -27.725863 2.243545 -5.255043 -3.180162 14.282907 -0.826599 6.95251 -1e-06 -12.690618 2e-06 16.091839 -17.346584 2.565371 1.665668 -1.955923 -2.878302 4.727805 -4.170593 4.99393 11.020539 1e-06 -3e-06 12.109067 -3.735722 -2.866789 -1e-06 -0.0 -0.0 1.291988 -1.928552 -1.498091 14.800142 0.567466 3.86561 14.242588 -1.341739 -6.660667 19.63199 0.143925 -0.648248 49.106796 -0.768465 -6.218421 0.353029 -1.511151 -0.03194 20.222815 3.68431 2.316631 18.787294 2e-06 -3e-06 10.751641 -0.47987 1.397905 -0.0 0.0 -0.0 3.27381 0.305946 -0.580111 21.486834 11.830383 2.266135 8.162936 0.0 -2e-06 18.399103 -3.79899 -4.940583 3e-06 -0.0 -1e-06 10.582483 17.139261 2.31436 0.019059 -0.138596 6.591477 -8.533075 3.478929 -5.234021 1.641818 -2.080365 0.353936 0.0 -0.0 2e-06 -3.452927 -28.443331 3.738082 0.001608 -0.107912 2.805293 5.879218 -6.84521 -2.50335 -1.45578 0.799392 0.929786 -0.0 1e-06 -1e-06 
0.0 0.0 0.0 0.0 -0.0 0.0 0.132918 99.980095 0.67309 -2.314985 -0.296445 -1.665317 0.6027 0.094715 -2.777234 -0.397555 -0.076367 -6.131166 -0.384744 -2.199606 12.327428 -3.135802 5.125847 17.987841 0.098987 2.861967 -3.544419 -2.801423 3.906183 0.467699 7.7e-05 -2.3e-05 5e-06 0.064998 -0.146848 0.013239 0.827917 -3.863101 -10.50352 -0.702641 3.583965 -10.49996 -15.443362 -5.615271 14.102273 -41.403053 -42.141029 5.145069 -179.597305 -57.274155 179.269348 60.709538 -9.589255 -37.007305 -5.882111 9.861295 0.702594 -10.936883 -0.360577 7.156212 2e-06 8.774835 -1e-06 -13.883556 17.470121 7.432208 -1.844034 2.498507 -2.507277 -10.163611 4.678948 4.621113 -20.976048 -5e-06 5e-06 -21.226309 2.451701 -3.593999 0.0 -7e-06 -3e-06 -1.362682 2.240801 -0.746324 -21.334938 0.584907 3.008328 -13.821228 -4e-06 5e-06 -23.887196 -0.24908 -0.839478 -59.631699 2.396582 -1.020922 -0.294023 1.679689 0.833255 -14.218223 0.093212 1.300583 -34.212082 -0.287567 0.967177 -20.033232 0.964537 1.21285 2e-06 0.0 -0.0 -3.440392 0.788234 0.501658 -15.928205 -3.167316 2.999711 -6.338833 -2e-06 2e-06 -18.123465 3.648185 -4.905671 -4e-06 -0.0 -2e-06 22.47761 5.187088 19.952185 48.501923 10.114946 38.042225 0.198389 36.697308 0.025686 -12.573013 -8.645901 -27.068123 2.243545 -5.255042 -3.180161 14.2829 -0.826597 6.952506 -1e-06 -12.690615 0.0 16.081308 -17.305834 2.576916 1.665668 -1.955923 -2.878301 4.727802 -4.170591 4.993927 11.020535 2e-06 -3e-06 12.10906 -3.735719 -2.866786 -1e-06 -0.0 1e-06 1.291987 -1.928552 -1.498089 14.800139 0.567467 3.86561 14.242583 -1.341739 -6.660662 19.631979 0.143926 -0.648248 49.072132 -0.789841 -6.178627 0.35303 -1.511152 -0.031939 20.222803 3.684311 2.31663 18.787287 3e-06 -4e-06 10.751636 -0.479869 1.397906 -0.0 0.0 2e-06 3.273809 0.305947 -0.580111 21.486828 11.830383 2.266132 8.16293 1e-06 -2e-06 18.399097 -3.798988 -4.940582 3e-06 -0.0 -2e-06 10.565141 17.226452 2.369644 0.025983 -0.148338 6.611607 -8.460653 3.625138 -5.249862 1.643329 -2.079677 0.380813 0.0 -0.0 2e-06 -3.47618 -28.358603 3.683341 -0.001002 -0.128615 2.930809 5.823636 -6.74716 -2.453552 -1.453164 0.815281 0.898437 0.0 0.0 -1e-06 
